{"title":"Hanna 2011 DVDRip BigPerm LKRG","uid":6620113,"size":733690136,"categoryP":"video","categoryS":"movies","magnet":"?xt=urn:btih:263c864c50900142473db83143d99d2489b2df23&amp;dn=Hanna+2011+DVDRip+BigPerm+LKRG&amp;tr=udp%3A%2F%2Ftracker.openbittorrent.com%3A80&amp;tr=udp%3A%2F%2Fopen.demonii.com%3A1337&amp;tr=udp%3A%2F%2Ftracker.coppersurfer.tk%3A6969&amp;tr=udp%3A%2F%2Fexodus.desync.com%3A6969","seeders":1,"leechers":0,"uploader":".BONE.","files":2,"time":1313950532,"description":"\n\nPLOT\n\nA 16-year-old who was raised by her father to be the perfect assassin is dispatched on a mission\nacross Europe, tracked by a ruthless intelligence agent and her operatives.\n &lt;a href=&quot;\nhttp://www.imdb.com/title/tt0993842/&quot; rel=&quot;nofollow&quot; target=&quot;_NEW&quot;&gt;\nhttp://www.imdb.com/title/tt0993842/&lt;/a&gt; \n\n\nEncoded By .......: BigPerm1828\nRuntime ..........: 1h 51mn\nFile Size ........: 700 MB\nResolution .......: 704 x 400\nIMDb URL .........: http://www.imdb.com/title/tt0993842/\nGenre ............: Action | Crime | Mystery\nLanguage .........: English\nVideo\nID : 1\nFormat : AVC\nFormat/Info : Advanced Video Codec\nFormat profile : &lt;a class=&quot;__cf_email__&quot; href=&quot;/cdn-cgi/l/email-protection&quot; data-cfemail=&quot;8ac7ebe3e4cac6b9a4ba&quot;&gt;[email&amp;#160;protected]&lt;/a&gt;&lt;script cf-hash='f9e31' type=&quot;text/javascript&quot;&gt;\n/* &lt;![CDATA[ */!function(){try{var t=&quot;currentScript&quot;in document?document.currentScript:function(){for(var t=document.getElementsByTagName(&quot;script&quot;),e=t.length;e--;)if(t[e].getAttribute(&quot;cf-hash&quot;))return t[e]}();if(t&amp;&amp;t.previousSibling){var e,r,n,i,c=t.previousSibling,a=c.getAttribute(&quot;data-cfemail&quot;);if(a){for(e=&quot;&quot;,r=parseInt(a.substr(0,2),16),n=2;a.length-n;n+=2)i=parseInt(a.substr(n,2),16)^r,e+=String.fromCharCode(i);e=document.createTextNode(e),c.parentNode.replaceChild(e,c)}}}catch(u){}}();/* ]]&gt; */&lt;/script&gt;\nFormat settings, CABAC : Yes\nFormat settings, ReFrames : 4 frames\nFormat settings, GOP : M=3, N=32\nCodec ID : avc1\nCodec ID/Info : Advanced Video Coding\nDuration : 1h 51mn\nBit rate mode : Variable\nBit rate : 716 Kbps\nWidth : 704 pixels\nHeight : 400 pixels\nDisplay aspect ratio : 2.35:1\nFrame rate mode : Variable\nFrame rate : 23.976 fps\nMinimum frame rate : 23.256 fps\nMaximum frame rate : 25.000 fps\nColor space : YUV\nChroma subsampling : 4:2:0\nBit depth : 8 bits\nScan type : Progressive\nBits/(Pixel*Frame) : 0.106\nStream size : 569 MiB (81%)\nWriting library : x264 core 112\nAudio\nID : 2\nFormat : AAC\nFormat/Info : Advanced Audio Codec\nFormat version : Version 4\nFormat profile : LC\nCodec ID : 40\nDuration : 1h 51mn\nBit rate mode : Variable\nBit rate : 160 Kbps\nMaximum bit rate : 362 Kbps\nChannel(s) : 2 channels\nChannel positions : Front: L R\nSampling rate : 48.0 KHz\nCompression mode : Lossy\nStream size : 127 MiB (18%)\nLanguage : English\n &lt;a href=&quot;\nhttp://www.shotpix.com/images/07051071836064292024.png&quot; rel=&quot;nofollow&quot; target=&quot;_NEW&quot;&gt;\nhttp://www.shotpix.com/images/07051071836064292024.png&lt;/a&gt;\n &lt;a href=&quot;\nhttp://www.shotpix.com/images/87060105321291142876.png&quot; rel=&quot;nofollow&quot; target=&quot;_NEW&quot;&gt;\nhttp://www.shotpix.com/images/87060105321291142876.png&lt;/a&gt;\n &lt;a href=&quot;\nhttp://www.shotpix.com/images/50093869750038643412.png&quot; rel=&quot;nofollow&quot; target=&quot;_NEW&quot;&gt;\nhttp://www.shotpix.com/images/50093869750038643412.png&lt;/a&gt;\n &lt;a href=&quot;\nhttp://www.shotpix.com/images/13832100082230198001.png&quot; rel=&quot;nofollow&quot; target=&quot;_NEW&quot;&gt;\nhttp://www.shotpix.com/images/13832100082230198001.png&lt;/a&gt;\n","torrent":{"xt":"urn:btih:263c864c50900142473db83143d99d2489b2df23","amp;dn":"Hanna+2011+DVDRip+BigPerm+LKRG","amp;tr":["udp%3A%2F%2Ftracker.openbittorrent.com%3A80","udp%3A%2F%2Fopen.demonii.com%3A1337","udp%3A%2F%2Ftracker.coppersurfer.tk%3A6969","udp%3A%2F%2Fexodus.desync.com%3A6969"],"infoHash":"263c864c50900142473db83143d99d2489b2df23","infoHashBuffer":{"type":"Buffer","data":[38,60,134,76,80,144,1,66,71,61,184,49,67,217,157,36,137,178,223,35]},"announce":[],"urlList":[]}}